<?xml version="1.0" encoding="UTF-8"?>
<svg xmlns="http://www.w3.org/2000/svg" viewBox="0 0 738 267" width="738" height="267">
<path d="M0.1 0.1C246.03 0.1 491.97 0.1 737.9 0.1C737.9 89.06 737.9 178.02 737.9 266.97C491.97 266.97 246.03 266.97 0.1 266.97C0.1 178.02 0.1 89.06 0.1 0.1ZM398.58 20.96C392.91 19.28 375.86 20.67 369 20.67C347.25 20.67 325.5 20.67 303.75 20.67C298.73 20.67 285.64 19.41 281.53 20.75C280.59 21.05 276.3 28.67 276.21 29.79C278.15 30.95 281.6 30.32 283.89 30.32C290.24 30.32 296.59 30.32 302.94 30.32C326.31 30.32 349.68 30.32 373.05 30.32C378.05 30.32 383.05 30.32 388.05 30.32C389.56 30.32 392.35 30.87 393.65 29.95C395.04 28.97 395.8 26.58 396.58 25.15C397.33 23.77 398.55 22.49 398.58 20.96ZM387.43 40.73C385.74 39.49 382.05 40.19 379.94 40.19C373.46 40.19 366.97 40.19 360.49 40.19C336.44 40.19 312.4 40.19 288.35 40.19C284.75 40.19 272.98 39.25 270.3 40.34C269.04 40.85 265.12 48.25 264.9 49.65C270.82 51.34 287.37 49.96 294.43 49.96C316.04 49.96 337.66 49.96 359.27 49.96C363.48 49.96 379.36 51.05 382.26 49.7C384.1 48.83 386.93 42.66 387.43 40.73ZM376.05 60.18C371.05 58.52 353.08 59.85 346.71 59.85C324.83 59.85 302.94 59.85 281.06 59.85C276.86 59.85 261.84 58.76 258.87 60.1C257.05 60.92 254.03 67.23 253.79 69.1C255.51 70.25 259.12 69.56 261.2 69.56C267.41 69.56 273.63 69.56 279.84 69.56C303.62 69.56 327.39 69.56 351.17 69.56C355.23 69.56 367.64 70.62 370.76 69.44C372.74 68.68 375.88 62.11 376.05 60.18ZM482.89 80.04C481.15 78.8 472.11 79.6 469.51 79.6C457.48 79.6 445.46 79.6 433.44 79.6C387.37 79.6 341.31 79.6 295.24 79.6C283.76 79.6 272.28 79.6 260.79 79.6C258.09 79.6 249.52 78.72 247.48 79.86C245.35 81.06 243.36 86.37 242.34 88.55C245.32 90.53 252.74 89.15 256.33 89.15C268.36 89.15 280.38 89.15 292.4 89.15C338.2 89.15 384 89.15 429.79 89.15C440.73 89.15 451.68 89.15 462.62 89.15C467.07 89.15 473.28 90.28 477.55 89.07C478.82 88.71 482.78 81.37 482.89 80.04ZM472.06 99.08C432.84 99.08 393.63 99.08 354.41 99.08C352.72 102.19 351.03 105.3 349.33 108.41C351.71 109.52 355.43 108.85 358.06 108.85C364.41 108.85 370.76 108.85 377.11 108.85C399.94 108.85 422.77 108.85 445.6 108.85C449.01 108.85 464.52 109.7 466.58 108.56C468.85 107.3 471.35 101.45 472.06 99.08ZM460.59 119.2C458.1 118.13 454.39 118.78 451.68 118.78C445.19 118.78 438.71 118.78 432.22 118.78C409.53 118.78 386.83 118.78 364.14 118.78C360.18 118.78 346.1 117.74 343.27 118.97C341.92 119.56 341.03 122.42 340.25 123.62C339.39 124.94 338.08 126.71 338.2 128.18C343.92 129.64 361.25 128.38 368.19 128.38C389.67 128.38 411.15 128.38 432.63 128.38C438.03 128.38 443.43 128.38 448.84 128.38C450.61 128.38 453.87 129.02 455.47 128.22C456.37 127.77 460.46 120.28 460.59 119.2ZM449.13 138.81C447.08 137.69 443.49 138.36 441.14 138.36C434.79 138.36 428.44 138.36 422.09 138.36C398.99 138.36 375.89 138.36 352.79 138.36C348.14 138.36 336.19 137.21 332.37 138.46C330.22 139.17 327.25 145.64 326.77 147.72C328.91 148.82 332.56 148.11 334.96 148.11C341.31 148.11 347.66 148.11 354 148.11C377.11 148.11 400.21 148.11 423.31 148.11C426.86 148.11 442.03 149.01 444.29 147.82C445.35 147.27 448.98 140.07 449.13 138.81ZM452.92 196.3C438.31 198.32 437.42 208.73 437.42 221.08C437.42 237.47 440.97 249.03 460.75 246.18C474.68 244.17 475.54 233.53 475.54 221.89C475.54 217.38 476.01 212.58 474.85 208.18C472.32 198.59 461.98 195.04 452.92 196.3ZM187.44 197.18C184.82 197.18 182.2 197.18 179.58 197.18C179.58 213.21 179.58 229.24 179.58 245.27C182.2 245.27 184.82 245.27 187.44 245.27C187.65 238.47 187.87 231.66 188.08 224.86C194.67 224.86 201.26 224.86 207.84 224.86C207.84 231.67 207.84 238.49 207.84 245.31C210.6 245.31 213.36 245.31 216.12 245.31C216.12 229.26 216.12 213.21 216.12 197.16C213.45 197.16 210.78 197.16 208.11 197.16C207.87 204 207.62 210.85 207.38 217.69C200.96 217.69 194.54 217.69 188.12 217.69C187.89 210.86 187.67 204.02 187.44 197.18ZM286.32 217.77C282.14 214.26 277.5 199.75 273.72 197.37C272.22 196.43 267.62 196.88 266.06 197.51C265.21 200.58 268.17 203.76 269.73 206.25C273 211.47 280.16 220.62 281.92 226.05C283.86 232.01 280.8 239.24 282.49 245.28C285.04 245.28 287.59 245.28 290.14 245.28C291.94 239.16 288.67 231.69 290.76 225.67C292.83 219.68 300.01 211.38 303.37 205.49C304.83 202.92 307.48 200.59 306.59 197.41C304.85 196.93 301.01 196.47 299.42 197.51C295.26 200.21 290.84 214.97 286.32 217.77ZM382.94 226.34C383.57 225.07 384.78 224.83 385.87 223.96C389.25 221.24 390.88 216.79 391.03 212.57C391.57 196.87 379.18 197.11 367.38 197.11C363.88 197.11 358.8 196.19 355.58 197.57C355.58 213.47 355.58 229.38 355.58 245.28C358.34 245.28 361.1 245.28 363.86 245.28C363.86 239.28 363.86 233.28 363.86 227.28C365.9 226.73 371.7 226.06 373.53 227.28C374.47 227.9 374.77 229.47 375.27 230.4C376.43 232.57 382.12 244.17 383.37 245C384.91 246.02 389.67 245.61 391.29 244.97C392.52 240.53 384.43 231.1 382.94 226.34ZM538.4 213.28C536.77 212.49 535.91 210.43 534.98 208.89C530.66 201.75 529.06 195.16 519.36 197.35C518.19 200.98 527.6 212.34 529.95 215.94C530.72 217.11 532.86 219.14 532.73 220.63C532.33 225.12 517.02 239.6 518.09 244.99C530.35 249.66 531.32 231 538 227.84C544.61 230.84 545.92 250.22 558.26 244.94C558.97 242.13 556.8 240.22 555.35 237.98C553.46 235.08 543.88 222.87 543.64 220.6C543.46 218.96 546.12 216.2 547.07 214.93C549.43 211.77 558.14 200.79 557.05 197.45C546.63 193.54 544.26 207.88 538.4 213.28ZM453.39 204.02C467.75 201.74 467.28 211.68 467.28 222.29C467.28 229.33 467.8 237.37 458.97 238.73C444.71 240.93 445.74 229.41 445.74 219.45C445.74 213.06 445.32 205.31 453.39 204.02ZM363.9 219.6C363.9 214.55 363.9 209.5 363.9 204.46C370.83 203.76 382.6 202.38 382.65 212.16C382.69 219.56 376.43 219.93 370.62 219.93C368.42 219.93 366.01 220.23 363.9 219.6Z" fill="#ffffff" fill-rule="evenodd" stroke="#ffffff" stroke-width="0.25" stroke-linejoin="round"/>
<path d="M398.58 20.96C398.55 22.49 397.33 23.77 396.58 25.15C395.8 26.58 395.04 28.97 393.65 29.95C392.35 30.87 389.56 30.32 388.05 30.32C383.05 30.32 378.05 30.32 373.05 30.32C349.68 30.32 326.31 30.32 302.94 30.32C296.59 30.32 290.24 30.32 283.89 30.32C281.6 30.32 278.15 30.95 276.21 29.79C276.3 28.67 280.59 21.05 281.53 20.75C285.64 19.41 298.73 20.67 303.75 20.67C325.5 20.67 347.25 20.67 369 20.67C375.86 20.67 392.91 19.28 398.58 20.96ZM387.43 40.73C386.93 42.66 384.1 48.83 382.26 49.7C379.36 51.05 363.48 49.96 359.27 49.96C337.66 49.96 316.04 49.96 294.43 49.96C287.37 49.96 270.82 51.34 264.9 49.65C265.12 48.25 269.04 40.85 270.3 40.34C272.98 39.25 284.75 40.19 288.35 40.19C312.4 40.19 336.44 40.19 360.49 40.19C366.97 40.19 373.46 40.19 379.94 40.19C382.05 40.19 385.74 39.49 387.43 40.73ZM376.05 60.18C375.88 62.11 372.74 68.68 370.76 69.44C367.64 70.62 355.23 69.56 351.17 69.56C327.39 69.56 303.62 69.56 279.84 69.56C273.63 69.56 267.41 69.56 261.2 69.56C259.12 69.56 255.51 70.25 253.79 69.1C254.03 67.23 257.05 60.92 258.87 60.1C261.84 58.76 276.86 59.85 281.06 59.85C302.94 59.85 324.83 59.85 346.71 59.85C353.08 59.85 371.05 58.52 376.05 60.18ZM482.89 80.04C482.78 81.37 478.82 88.71 477.55 89.07C473.28 90.28 467.07 89.15 462.62 89.15C451.68 89.15 440.73 89.15 429.79 89.15C384 89.15 338.2 89.15 292.4 89.15C280.38 89.15 268.36 89.15 256.33 89.15C252.74 89.15 245.32 90.53 242.34 88.55C243.36 86.37 245.35 81.06 247.48 79.86C249.52 78.72 258.09 79.6 260.79 79.6C272.28 79.6 283.76 79.6 295.24 79.6C341.31 79.6 387.37 79.6 433.44 79.6C445.46 79.6 457.48 79.6 469.51 79.6C472.11 79.6 481.15 78.8 482.89 80.04ZM472.06 99.08C471.35 101.45 468.85 107.3 466.58 108.56C464.52 109.7 449.01 108.85 445.6 108.85C422.77 108.85 399.94 108.85 377.11 108.85C370.76 108.85 364.41 108.85 358.06 108.85C355.43 108.85 351.71 109.52 349.33 108.41C351.03 105.3 352.72 102.19 354.41 99.08C393.63 99.08 432.84 99.08 472.06 99.08ZM460.59 119.2C460.46 120.28 456.37 127.77 455.47 128.22C453.87 129.02 450.61 128.38 448.84 128.38C443.43 128.38 438.03 128.38 432.63 128.38C411.15 128.38 389.67 128.38 368.19 128.38C361.25 128.38 343.92 129.64 338.2 128.18C338.08 126.71 339.39 124.94 340.25 123.62C341.03 122.42 341.92 119.56 343.27 118.97C346.1 117.74 360.18 118.78 364.14 118.78C386.83 118.78 409.53 118.78 432.22 118.78C438.71 118.78 445.19 118.78 451.68 118.78C454.39 118.78 458.1 118.13 460.59 119.2ZM449.13 138.81C448.98 140.07 445.35 147.27 444.29 147.82C442.03 149.01 426.86 148.11 423.31 148.11C400.21 148.11 377.11 148.11 354 148.11C347.66 148.11 341.31 148.11 334.96 148.11C332.56 148.11 328.91 148.82 326.77 147.72C327.25 145.64 330.22 139.17 332.37 138.46C336.19 137.21 348.14 138.36 352.79 138.36C375.89 138.36 398.99 138.36 422.09 138.36C428.44 138.36 434.79 138.36 441.14 138.36C443.49 138.36 447.08 137.69 449.13 138.81ZM452.92 196.3C461.98 195.04 472.32 198.59 474.85 208.18C476.01 212.58 475.54 217.38 475.54 221.89C475.54 233.53 474.68 244.17 460.75 246.18C440.97 249.03 437.42 237.47 437.42 221.08C437.42 208.73 438.31 198.32 452.92 196.3ZM187.44 197.18C187.67 204.02 187.89 210.86 188.12 217.69C194.54 217.69 200.96 217.69 207.38 217.69C207.62 210.85 207.87 204 208.11 197.16C210.78 197.16 213.45 197.16 216.12 197.16C216.12 213.21 216.12 229.26 216.12 245.31C213.36 245.31 210.6 245.31 207.84 245.31C207.84 238.49 207.84 231.67 207.84 224.86C201.26 224.86 194.67 224.86 188.08 224.86C187.87 231.66 187.65 238.47 187.44 245.27C184.82 245.27 182.2 245.27 179.58 245.27C179.58 229.24 179.58 213.21 179.58 197.18C182.2 197.18 184.82 197.18 187.44 197.18ZM286.32 217.77C290.84 214.97 295.26 200.21 299.42 197.51C301.01 196.47 304.85 196.93 306.59 197.41C307.48 200.59 304.83 202.92 303.37 205.49C300.01 211.38 292.83 219.68 290.76 225.67C288.67 231.69 291.94 239.16 290.14 245.28C287.59 245.28 285.04 245.28 282.49 245.28C280.8 239.24 283.86 232.01 281.92 226.05C280.16 220.62 273 211.47 269.73 206.25C268.17 203.76 265.21 200.58 266.06 197.51C267.62 196.88 272.22 196.43 273.72 197.37C277.5 199.75 282.14 214.26 286.32 217.77ZM382.94 226.34C384.43 231.1 392.52 240.53 391.29 244.97C389.67 245.61 384.91 246.02 383.37 245C382.12 244.17 376.43 232.57 375.27 230.4C374.77 229.47 374.47 227.9 373.53 227.28C371.7 226.06 365.9 226.73 363.86 227.28C363.86 233.28 363.86 239.28 363.86 245.28C361.1 245.28 358.34 245.28 355.58 245.28C355.58 229.38 355.58 213.47 355.58 197.57C358.8 196.19 363.88 197.11 367.38 197.11C379.18 197.11 391.57 196.87 391.03 212.57C390.88 216.79 389.25 221.24 385.87 223.96C384.78 224.83 383.57 225.07 382.94 226.34ZM538.4 213.28C544.26 207.88 546.63 193.54 557.05 197.45C558.14 200.79 549.43 211.77 547.07 214.93C546.12 216.2 543.46 218.96 543.64 220.6C543.88 222.87 553.46 235.08 555.35 237.98C556.8 240.22 558.97 242.13 558.26 244.94C545.92 250.22 544.61 230.84 538 227.84C531.32 231 530.35 249.66 518.09 244.99C517.02 239.6 532.33 225.12 532.73 220.63C532.86 219.14 530.72 217.11 529.95 215.94C527.6 212.34 518.19 200.98 519.36 197.35C529.06 195.16 530.66 201.75 534.98 208.89C535.91 210.43 536.77 212.49 538.4 213.28ZM453.39 204.02C445.32 205.31 445.74 213.06 445.74 219.45C445.74 229.41 444.71 240.93 458.97 238.73C467.8 237.37 467.28 229.33 467.28 222.29C467.28 211.68 467.75 201.74 453.39 204.02ZM363.9 219.6C366.01 220.23 368.42 219.93 370.62 219.93C376.43 219.93 382.69 219.56 382.65 212.16C382.6 202.38 370.83 203.76 363.9 204.46C363.9 209.5 363.9 214.55 363.9 219.6Z" fill="#010103" fill-rule="evenodd" stroke="#010103" stroke-width="0.25" stroke-linejoin="round"/>
</svg>