<?xml version="1.0" encoding="UTF-8"?>
<svg xmlns="http://www.w3.org/2000/svg" viewBox="0 0 617 324" width="617" height="324">
<path d="M0.1 0.1C205.7 0.1 411.3 0.1 616.9 0.1C616.9 108.04 616.9 215.97 616.9 323.9C411.3 323.9 205.7 323.9 0.1 323.9C0.1 215.97 0.1 108.04 0.1 0.1ZM166.59 143.44C170.89 137.44 170.02 130.48 170.02 123.44C170.02 110.15 171.8 95.83 155.32 92.08C151.27 91.16 146.74 91.62 142.62 91.62C138.73 91.62 133.85 90.81 130.15 92.04C130.15 126.93 130.15 161.83 130.15 196.73C134.13 197.71 138.93 197.03 143.03 197.03C149.62 197.03 155.87 197.26 161.74 193.8C171.99 187.76 170.02 175.63 170.02 165.47C170.02 160.86 170.65 155.73 169.76 151.19C169.19 148.26 167.42 146.17 166.59 143.44ZM245.57 91.63C236.55 91.63 227.53 91.63 218.52 91.63C217.27 93.57 217.92 97.06 217.92 99.36C217.92 105.49 217.92 111.61 217.92 117.73C217.92 135.95 217.92 154.18 217.92 172.41C217.92 178.59 216.58 191.67 218.24 197.01C227.35 197.01 236.47 197.01 245.58 197.01C245.58 192.45 245.58 187.88 245.58 183.31C241.67 183.08 237.76 182.84 233.84 182.61C233.84 172.08 233.84 161.54 233.84 151C237.75 151 241.65 151 245.55 151C245.55 146.25 245.55 141.49 245.55 136.73C241.64 136.73 237.74 136.73 233.84 136.73C233.84 126.59 233.84 116.45 233.84 106.3C237.75 106.05 241.66 105.8 245.57 105.55C245.57 100.91 245.57 96.27 245.57 91.63ZM255.86 197.07C256.2 208.16 256.54 219.24 256.88 230.33C291.5 230.34 326.11 230.35 360.73 230.35C360.9 219.26 361.06 208.17 361.22 197.08C380.29 193.86 379.18 182.71 379.18 166.7C379.18 161.42 380.14 155.07 378.79 149.94C378.15 147.53 376.47 145.74 375.81 143.44C379.97 137.03 379.18 130.47 379.18 123.03C379.18 109.91 380.97 95.76 364.63 92.1C360.7 91.23 356.37 91.62 352.37 91.62C348.89 91.62 342.92 90.47 339.84 92.02C339.73 125.06 339.61 158.1 339.5 191.14C339.3 191.32 339.1 191.51 338.9 191.69C337.74 191.56 336.57 191.44 335.41 191.31C335.41 186.58 335.86 181.61 335.35 176.91C334.43 168.52 330.79 159.13 328.78 150.84C327.71 146.46 324.39 138.7 324.63 134.46C324.75 132.28 326.27 130 326.93 127.95C329.92 118.68 338.3 101.28 335.11 92.02C331.21 92.01 327.3 92.01 323.39 92C319.45 103.61 315.51 115.22 311.56 126.83C309.85 125.32 310.8 120.03 310.8 117.73C310.8 112.13 311.97 96.43 310.51 92.02C305.69 91.98 300.87 91.95 296.05 91.91C295.97 125.03 295.88 158.16 295.8 191.28C294.3 192.12 292.81 192.19 291.41 191.16C292.46 169.35 289.29 147.98 286.27 126.46C285.26 119.23 284.4 111.94 283.48 104.68C282.95 100.55 282.97 95.91 281.77 91.95C274.56 91.9 267.35 91.85 260.14 91.8C258.72 93.62 258.94 96.71 258.69 98.96C258.12 104.09 257.6 109.38 256.69 114.46C255.29 122.23 254.84 130.18 253.64 138.02C251.7 150.66 249.89 163.26 249.89 176.08C249.89 180.66 248.81 193.28 250.35 196.85C252.19 196.92 254.02 197 255.86 197.07ZM398.89 91.64C393.85 91.64 388.82 91.64 383.79 91.64C382.14 97.21 383.41 106.79 383.41 112.83C383.41 128.07 383.41 143.3 383.41 158.53C383.41 166.13 381.93 180.09 384.2 186.91C386.77 194.65 395.42 198.33 402.97 198.44C411.75 198.58 420.76 193.94 422.96 184.87C424.33 179.23 423.13 170.24 423.13 164.25C423.13 149.56 423.13 134.87 423.13 120.18C423.13 113.51 423.13 106.85 423.13 100.18C423.13 97.69 423.86 93.77 422.57 91.64C417.53 91.64 412.49 91.64 407.46 91.64C406.56 99.35 407.27 107.52 407.27 115.28C407.27 131.06 407.27 146.84 407.27 162.62C407.27 166.03 408.09 180.39 406.78 182.54C406.04 183.76 404.72 184.11 403.38 184.12C401.76 184.15 400.29 183.7 399.54 182.16C398.26 179.53 399.2 166.33 399.2 162.62C399.2 146.7 399.2 130.79 399.2 114.87C399.2 108.01 400.49 98.11 398.89 91.64ZM486.62 91.62C482.95 91.62 479.28 91.62 475.6 91.62C473.58 93.37 473.33 96.84 472.47 99.31C470.09 106.07 467.76 112.85 465.45 119.62C464.59 122.12 464.13 125.9 462.2 127.52C462.2 115.56 462.2 103.61 462.2 91.65C457.19 91.65 452.17 91.65 447.15 91.65C447.15 120.75 447.15 149.84 447.15 178.94C451.43 180.84 457.81 181.38 461.85 178.53C462.98 175.09 461.78 171.08 462.23 167.51C462.67 164.05 464.22 160.29 465.4 157.02C468.99 170.35 472.58 183.68 476.17 197.02C479.7 197.02 483.22 197.02 486.75 197.02C487.4 194.4 487.04 191.43 487.04 188.73C487.04 184.84 487.69 180.31 486.97 176.49C485.18 167.04 482.08 157.51 479.65 148.19C478.61 144.2 475.88 138.57 476.12 134.46C476.21 132.74 477.47 130.87 477.98 129.24C480.87 120.13 490.31 100.42 486.62 91.62ZM174.15 92C174.15 127 174.15 162 174.15 197C179.44 197 184.72 197 190.01 197C190.01 183.18 190.01 169.36 190.01 155.54C192.69 156.16 193.42 163 194.05 165.65C196.55 176.09 199.31 186.8 202.61 196.99C206.28 196.99 209.95 196.99 213.62 196.99C216.03 187.26 212.79 174.78 209.81 165.46C208.5 161.36 206.24 156.73 206.07 152.41C208.15 150.45 210.39 148.92 211.88 146.37C215.95 139.42 213.94 125.03 213.94 116.91C213.94 109.66 214.75 102.32 208.91 96.94C206.54 94.75 203.23 93.11 200.14 92.24C195.4 90.9 178.94 90.86 174.15 92ZM427.21 91.65C427.21 126.65 427.21 161.65 427.21 196.65C431.27 195.54 434.61 194.54 438.89 195.35C445.78 196.66 455.7 201.67 462.17 196.62C462.17 192.09 462.17 187.57 462.17 183.04C460.25 183.14 458.19 184.28 456.18 184.64C452.22 185.33 446.63 183.67 443.04 182.09C443.04 151.94 443.04 121.8 443.04 91.65C437.77 91.65 432.49 91.65 427.21 91.65ZM146.05 106.17C148.3 105.82 151.94 105.27 153.5 107.46C155.16 109.79 154.14 114.98 154.14 117.73C154.14 126.17 157.82 138.27 146.05 136.5C146.05 126.39 146.05 116.28 146.05 106.17ZM190.02 140.88C190.02 129.35 190.02 117.83 190.02 106.3C192.21 105.67 196.36 105.27 197.68 107.75C198.67 109.62 198.07 112.82 198.07 114.87C198.07 120.58 198.07 126.3 198.07 132.01C198.07 134.12 198.73 137.59 197.56 139.42C196.06 141.76 192.36 141.31 190.02 140.88ZM355.31 136.42C355.31 126.38 355.31 116.34 355.31 106.3C357.58 105.64 361.17 105.38 362.77 107.55C364.44 109.8 363.48 114.67 363.48 117.32C363.48 124.55 366.98 139.21 355.31 136.42ZM270.75 114.58C272.44 130.95 274.13 147.33 275.82 163.7C272.43 163.7 269.04 163.7 265.65 163.7C267.35 147.33 269.05 130.95 270.75 114.58ZM146.04 182.52C146.04 172.1 146.04 161.68 146.04 151.25C148.34 150.76 152.07 150.37 153.62 152.64C155.14 154.87 154.14 160 154.14 162.62C154.14 166.3 155.32 178.1 153.68 180.82C152.18 183.32 148.45 183.02 146.04 182.52ZM355.31 182.4C355.31 171.99 355.31 161.59 355.31 151.19C357.51 150.88 360.83 150.39 362.52 152.25C364.55 154.48 363.48 166.54 363.48 169.96C363.48 172.9 364.5 178.16 362.96 180.76C361.44 183.33 357.76 183.08 355.31 182.4ZM322.78 191.18C321.05 192.7 312.83 192.63 310.89 191.38C310.32 184.94 309.7 169.96 311.66 164.16C312.36 162.12 312.52 158.39 314.41 157.31C317.2 168.6 319.99 179.89 322.78 191.18ZM278.77 191.38C276.97 192.43 264.1 192.39 262.45 191.21C263.04 186.89 263.63 182.58 264.22 178.26C268.58 178.26 272.93 178.26 277.28 178.26C277.78 182.64 278.27 187.01 278.77 191.38Z" fill="#ffffff" fill-rule="evenodd" stroke="#ffffff" stroke-width="0.25" stroke-linejoin="round"/>
<path d="M166.59 143.44C167.42 146.17 169.19 148.26 169.76 151.19C170.65 155.73 170.02 160.86 170.02 165.47C170.02 175.63 171.99 187.76 161.74 193.8C155.87 197.26 149.62 197.03 143.03 197.03C138.93 197.03 134.13 197.71 130.15 196.73C130.15 161.83 130.15 126.93 130.15 92.04C133.85 90.81 138.73 91.62 142.62 91.62C146.74 91.62 151.27 91.16 155.32 92.08C171.8 95.83 170.02 110.15 170.02 123.44C170.02 130.48 170.89 137.44 166.59 143.44ZM245.57 91.63C245.57 96.27 245.57 100.91 245.57 105.55C241.66 105.8 237.75 106.05 233.84 106.3C233.84 116.45 233.84 126.59 233.84 136.73C237.74 136.73 241.64 136.73 245.55 136.73C245.55 141.49 245.55 146.25 245.55 151C241.65 151 237.75 151 233.84 151C233.84 161.54 233.84 172.08 233.84 182.61C237.76 182.84 241.67 183.08 245.58 183.31C245.58 187.88 245.58 192.45 245.58 197.01C236.47 197.01 227.35 197.01 218.24 197.01C216.58 191.67 217.92 178.59 217.92 172.41C217.92 154.18 217.92 135.95 217.92 117.73C217.92 111.61 217.92 105.49 217.92 99.36C217.92 97.06 217.27 93.57 218.52 91.63C227.53 91.63 236.55 91.63 245.57 91.63ZM291.41 191.16C289.23 192.72 281.26 192.5 278.77 191.38C278.27 187.01 277.78 182.64 277.28 178.26C272.93 178.26 268.58 178.26 264.22 178.26C263.63 182.58 263.04 186.89 262.45 191.21C260.46 191.56 258.46 191.91 256.47 192.26C256.27 193.86 256.06 195.47 255.86 197.07C254.02 197 252.19 196.92 250.35 196.85C248.81 193.28 249.89 180.66 249.89 176.08C249.89 163.26 251.7 150.66 253.64 138.02C254.84 130.18 255.29 122.23 256.69 114.46C257.6 109.38 258.12 104.09 258.69 98.96C258.94 96.71 258.72 93.62 260.14 91.8C267.35 91.85 274.56 91.9 281.77 91.95C282.97 95.91 282.95 100.55 283.48 104.68C284.4 111.94 285.26 119.23 286.27 126.46C289.29 147.98 292.46 169.35 291.41 191.16ZM335.41 191.31C333.03 192.48 324.88 192.75 322.78 191.18C319.99 179.89 317.2 168.6 314.41 157.31C312.52 158.39 312.36 162.12 311.66 164.16C309.7 169.96 310.32 184.94 310.89 191.38C308.09 191.95 298.04 192.76 295.8 191.28C295.88 158.16 295.97 125.03 296.05 91.91C300.87 91.95 305.69 91.98 310.51 92.02C311.97 96.43 310.8 112.13 310.8 117.73C310.8 120.03 309.85 125.32 311.56 126.83C315.51 115.22 319.45 103.61 323.39 92C327.3 92.01 331.21 92.01 335.11 92.02C338.3 101.28 329.92 118.68 326.93 127.95C326.27 130 324.75 132.28 324.63 134.46C324.39 138.7 327.71 146.46 328.78 150.84C330.79 159.13 334.43 168.52 335.35 176.91C335.86 181.61 335.41 186.58 335.41 191.31ZM361.22 197.08C361.02 195.38 360.81 193.69 360.6 192C355.87 191.28 342.78 193.54 339.5 191.14C339.61 158.1 339.73 125.06 339.84 92.02C342.92 90.47 348.89 91.62 352.37 91.62C356.37 91.62 360.7 91.23 364.63 92.1C380.97 95.76 379.18 109.91 379.18 123.03C379.18 130.47 379.97 137.03 375.81 143.44C376.47 145.74 378.15 147.53 378.79 149.94C380.14 155.07 379.18 161.42 379.18 166.7C379.18 182.71 380.29 193.86 361.22 197.08ZM398.89 91.64C400.49 98.11 399.2 108.01 399.2 114.87C399.2 130.79 399.2 146.7 399.2 162.62C399.2 166.33 398.26 179.53 399.54 182.16C400.29 183.7 401.76 184.15 403.38 184.12C404.72 184.11 406.04 183.76 406.78 182.54C408.09 180.39 407.27 166.03 407.27 162.62C407.27 146.84 407.27 131.06 407.27 115.28C407.27 107.52 406.56 99.35 407.46 91.64C412.49 91.64 417.53 91.64 422.57 91.64C423.86 93.77 423.13 97.69 423.13 100.18C423.13 106.85 423.13 113.51 423.13 120.18C423.13 134.87 423.13 149.56 423.13 164.25C423.13 170.24 424.33 179.23 422.96 184.87C420.76 193.94 411.75 198.58 402.97 198.44C395.42 198.33 386.77 194.65 384.2 186.91C381.93 180.09 383.41 166.13 383.41 158.53C383.41 143.3 383.41 128.07 383.41 112.83C383.41 106.79 382.14 97.21 383.79 91.64C388.82 91.64 393.85 91.64 398.89 91.64ZM486.62 91.62C490.31 100.42 480.87 120.13 477.98 129.24C477.47 130.87 476.21 132.74 476.12 134.46C475.88 138.57 478.61 144.2 479.65 148.19C482.08 157.51 485.18 167.04 486.97 176.49C487.69 180.31 487.04 184.84 487.04 188.73C487.04 191.43 487.4 194.4 486.75 197.02C483.22 197.02 479.7 197.02 476.17 197.02C472.58 183.68 468.99 170.35 465.4 157.02C464.22 160.29 462.67 164.05 462.23 167.51C461.78 171.08 462.98 175.09 461.85 178.53C457.81 181.38 451.43 180.84 447.15 178.94C447.15 149.84 447.15 120.75 447.15 91.65C452.17 91.65 457.19 91.65 462.2 91.65C462.2 103.61 462.2 115.56 462.2 127.52C464.13 125.9 464.59 122.12 465.45 119.62C467.76 112.85 470.09 106.07 472.47 99.31C473.33 96.84 473.58 93.37 475.6 91.62C479.28 91.62 482.95 91.62 486.62 91.62ZM174.15 92C178.94 90.86 195.4 90.9 200.14 92.24C203.23 93.11 206.54 94.75 208.91 96.94C214.75 102.32 213.94 109.66 213.94 116.91C213.94 125.03 215.95 139.42 211.88 146.37C210.39 148.92 208.15 150.45 206.07 152.41C206.24 156.73 208.5 161.36 209.81 165.46C212.79 174.78 216.03 187.26 213.62 196.99C209.95 196.99 206.28 196.99 202.61 196.99C199.31 186.8 196.55 176.09 194.05 165.65C193.42 163 192.69 156.16 190.01 155.54C190.01 169.36 190.01 183.18 190.01 197C184.72 197 179.44 197 174.15 197C174.15 162 174.15 127 174.15 92ZM427.21 91.65C432.49 91.65 437.77 91.65 443.04 91.65C443.04 121.8 443.04 151.94 443.04 182.09C446.63 183.67 452.22 185.33 456.18 184.64C458.19 184.28 460.25 183.14 462.17 183.04C462.17 187.57 462.17 192.09 462.17 196.62C455.7 201.67 445.78 196.66 438.89 195.35C434.61 194.54 431.27 195.54 427.21 196.65C427.21 161.65 427.21 126.65 427.21 91.65ZM146.05 106.17C146.05 116.28 146.05 126.39 146.05 136.5C157.82 138.27 154.14 126.17 154.14 117.73C154.14 114.98 155.16 109.79 153.5 107.46C151.94 105.27 148.3 105.82 146.05 106.17ZM190.02 140.88C192.36 141.31 196.06 141.76 197.56 139.42C198.73 137.59 198.07 134.12 198.07 132.01C198.07 126.3 198.07 120.58 198.07 114.87C198.07 112.82 198.67 109.62 197.68 107.75C196.36 105.27 192.21 105.67 190.02 106.3C190.02 117.83 190.02 129.35 190.02 140.88ZM355.31 136.42C366.98 139.21 363.48 124.55 363.48 117.32C363.48 114.67 364.44 109.8 362.77 107.55C361.17 105.38 357.58 105.64 355.31 106.3C355.31 116.34 355.31 126.38 355.31 136.42ZM270.75 114.58C269.05 130.95 267.35 147.33 265.65 163.7C269.04 163.7 272.43 163.7 275.82 163.7C274.13 147.33 272.44 130.95 270.75 114.58ZM146.04 182.52C148.45 183.02 152.18 183.32 153.68 180.82C155.32 178.1 154.14 166.3 154.14 162.62C154.14 160 155.14 154.87 153.62 152.64C152.07 150.37 148.34 150.76 146.04 151.25C146.04 161.68 146.04 172.1 146.04 182.52ZM355.31 182.4C357.76 183.08 361.44 183.33 362.96 180.76C364.5 178.16 363.48 172.9 363.48 169.96C363.48 166.54 364.55 154.48 362.52 152.25C360.83 150.39 357.51 150.88 355.31 151.19C355.31 161.59 355.31 171.99 355.31 182.4ZM328.7 207.99C327.75 207.99 326.8 207.99 325.84 207.99C325.48 206.05 326.32 203.03 324.65 201.79C323.21 202.52 323.8 204.89 323.8 206.28C323.78 209.17 322.94 219.09 324.62 220.82C326.38 219.33 325.41 216.19 325.84 214.07C326.8 214.07 327.75 214.07 328.7 214.07C329.82 217.86 329.85 223.95 324.78 224.23C323.38 224.3 321.94 223.82 320.93 222.83C319.47 221.4 319.9 219.15 319.9 217.3C319.9 213.64 318.74 201.68 321.26 199.45C327.71 193.73 329.97 203.36 328.7 207.99ZM353.83 206.81C352.89 206.81 351.96 206.81 351.03 206.81C350.06 204.63 351.42 202.73 348.97 201.81C348.97 204.13 348.97 206.45 348.97 208.77C350.45 209.34 352.2 209.09 353.38 210.38C354.67 211.78 354.63 221.54 353.27 222.88C347.77 228.29 343.86 220.58 345.31 215.17C346.44 215.17 347.57 215.17 348.69 215.17C348.97 217.06 349.24 218.94 349.51 220.83C351.24 219.53 350.87 215.11 350.14 213.22C348.89 212.54 347.3 212.89 346.17 211.86C343.82 209.73 344.23 201.01 346.68 199.15C352.43 194.8 355.22 202.21 353.83 206.81ZM270.36 198.76C271.9 202.05 273.92 220.62 272.7 223.83C271.92 223.83 271.13 223.83 270.35 223.83C270.07 222.37 269.8 220.9 269.53 219.44C268.53 219.44 267.53 219.44 266.53 219.44C266.19 220.92 265.85 222.39 265.51 223.87C264.81 223.87 264.11 223.87 263.41 223.87C261.74 218.25 263.91 204.6 265.45 198.76C267.09 198.76 268.73 198.76 270.36 198.76ZM280.14 198.77C280.68 201.13 281.23 203.5 281.77 205.86C282.32 203.58 282.86 201.3 283.4 199.02C284.86 198.52 286.19 198.45 287.44 199.34C287.44 207.5 287.44 215.66 287.44 223.82C286.37 223.82 285.29 223.82 284.22 223.82C283.95 220.91 283.68 218 283.4 215.08C282.86 217.18 282.32 219.29 281.77 221.39C281.03 218.95 280.29 216.51 279.54 214.07C279.54 217.33 279.54 220.59 279.54 223.85C278.39 223.85 277.24 223.85 276.08 223.85C276.08 215.49 276.08 207.13 276.08 198.77C277.43 198.77 278.79 198.77 280.14 198.77ZM297.3 198.72C297.3 199.85 297.3 200.97 297.3 202.1C296.41 202.1 295.52 202.1 294.63 202.1C294.63 204.35 294.63 206.6 294.63 208.85C295.5 209.08 296.36 209.31 297.22 209.54C297.22 210.56 297.22 211.59 297.22 212.61C296.56 212.71 295.9 212.81 295.24 212.91C294.09 214.58 294.29 218.23 294.87 220.15C295.67 220.51 296.48 220.88 297.28 221.24C297.28 222.13 297.28 223.02 297.28 223.91C295.14 223.91 292.99 223.91 290.84 223.91C290.84 215.51 290.84 207.12 290.84 198.72C293 198.72 295.15 198.72 297.3 198.72ZM309.64 223.89C308.91 223.89 308.18 223.89 307.46 223.89C306.51 221.08 305.57 218.26 304.62 215.44C304.35 218.23 304.08 221.02 303.81 223.82C302.71 223.82 301.6 223.82 300.5 223.82C300.5 215.52 300.5 207.23 300.5 198.93C307.28 197.59 309.99 199.06 309.99 205.87C309.99 207.36 310.28 209.16 309.93 210.61C309.66 211.75 308.38 212.5 308.25 213.65C307.83 217.23 311 219.99 309.64 223.89ZM316.83 198.85C316.83 207.17 316.83 215.5 316.83 223.82C315.6 223.82 314.37 223.82 313.13 223.82C313.13 215.5 313.13 207.17 313.13 198.85C314.37 198.85 315.6 198.85 316.83 198.85ZM339.66 198.74C341.17 203.56 342.95 219.14 341.76 223.81C340.94 223.81 340.13 223.81 339.31 223.81C339.04 222.33 338.77 220.86 338.49 219.38C337.68 219.38 336.86 219.38 336.04 219.38C335.64 220.87 335.23 222.37 334.82 223.86C334 223.86 333.19 223.86 332.37 223.86C331.33 219.98 333.04 202.38 334.82 198.74C336.43 198.74 338.04 198.74 339.66 198.74ZM305.55 202.2C303.18 202.32 303.53 209.58 305.44 210.31C306.63 208.65 306.57 203.95 305.55 202.2ZM268.31 215.97C269.87 214.4 269.02 208.84 268.25 206.69C266.62 208.08 266.02 215.48 268.31 215.97ZM337.27 207.15C336.36 209.45 335.07 213.69 336.45 215.9C339.34 215.66 338.44 209.13 337.27 207.15Z" fill="#122356" fill-rule="evenodd" stroke="#122356" stroke-width="0.25" stroke-linejoin="round"/>
<path d="M262.45 191.21C264.1 192.39 276.97 192.43 278.77 191.38C281.26 192.5 289.23 192.72 291.41 191.16C292.81 192.19 294.3 192.12 295.8 191.28C298.04 192.76 308.09 191.95 310.89 191.38C312.83 192.63 321.05 192.7 322.78 191.18C324.88 192.75 333.03 192.48 335.41 191.31C336.57 191.44 337.74 191.56 338.9 191.69C339.1 191.51 339.3 191.32 339.5 191.14C342.78 193.54 355.87 191.28 360.6 192C360.81 193.69 361.02 195.38 361.22 197.08C361.06 208.17 360.9 219.26 360.73 230.35C326.11 230.35 291.5 230.34 256.88 230.33C256.54 219.24 256.2 208.16 255.86 197.07C256.06 195.47 256.27 193.86 256.47 192.26C258.46 191.91 260.46 191.56 262.45 191.21ZM328.7 207.99C329.97 203.36 327.71 193.73 321.26 199.45C318.74 201.68 319.9 213.64 319.9 217.3C319.9 219.15 319.47 221.4 320.93 222.83C321.94 223.82 323.38 224.3 324.78 224.23C329.85 223.95 329.82 217.86 328.7 214.07C327.75 214.07 326.8 214.07 325.84 214.07C325.41 216.19 326.38 219.33 324.62 220.82C322.94 219.09 323.78 209.17 323.8 206.28C323.8 204.89 323.21 202.52 324.65 201.79C326.32 203.03 325.48 206.05 325.84 207.99C326.8 207.99 327.75 207.99 328.7 207.99ZM353.83 206.81C355.22 202.21 352.43 194.8 346.68 199.15C344.23 201.01 343.82 209.73 346.17 211.86C347.3 212.89 348.89 212.54 350.14 213.22C350.87 215.11 351.24 219.53 349.51 220.83C349.24 218.94 348.97 217.06 348.69 215.17C347.57 215.17 346.44 215.17 345.31 215.17C343.86 220.58 347.77 228.29 353.27 222.88C354.63 221.54 354.67 211.78 353.38 210.38C352.2 209.09 350.45 209.34 348.97 208.77C348.97 206.45 348.97 204.13 348.97 201.81C351.42 202.73 350.06 204.63 351.03 206.81C351.96 206.81 352.89 206.81 353.83 206.81ZM270.36 198.76C268.73 198.76 267.09 198.76 265.45 198.76C263.91 204.6 261.74 218.25 263.41 223.87C264.11 223.87 264.81 223.87 265.51 223.87C265.85 222.39 266.19 220.92 266.53 219.44C267.53 219.44 268.53 219.44 269.53 219.44C269.8 220.9 270.07 222.37 270.35 223.83C271.13 223.83 271.92 223.83 272.7 223.83C273.92 220.62 271.9 202.05 270.36 198.76ZM280.14 198.77C278.79 198.77 277.43 198.77 276.08 198.77C276.08 207.13 276.08 215.49 276.08 223.85C277.24 223.85 278.39 223.85 279.54 223.85C279.54 220.59 279.54 217.33 279.54 214.07C280.29 216.51 281.03 218.95 281.77 221.39C282.32 219.29 282.86 217.18 283.4 215.08C283.68 218 283.95 220.91 284.22 223.82C285.29 223.82 286.37 223.82 287.44 223.82C287.44 215.66 287.44 207.5 287.44 199.34C286.19 198.45 284.86 198.52 283.4 199.02C282.86 201.3 282.32 203.58 281.77 205.86C281.23 203.5 280.68 201.13 280.14 198.77ZM297.3 198.72C295.15 198.72 293 198.72 290.84 198.72C290.84 207.12 290.84 215.51 290.84 223.91C292.99 223.91 295.14 223.91 297.28 223.91C297.28 223.02 297.28 222.13 297.28 221.24C296.48 220.88 295.67 220.51 294.87 220.15C294.29 218.23 294.09 214.58 295.24 212.91C295.9 212.81 296.56 212.71 297.22 212.61C297.22 211.59 297.22 210.56 297.22 209.54C296.36 209.31 295.5 209.08 294.63 208.85C294.63 206.6 294.63 204.35 294.63 202.1C295.52 202.1 296.41 202.1 297.3 202.1C297.3 200.97 297.3 199.85 297.3 198.72ZM309.64 223.89C311 219.99 307.83 217.23 308.25 213.65C308.38 212.5 309.66 211.75 309.93 210.61C310.28 209.16 309.99 207.36 309.99 205.87C309.99 199.06 307.28 197.59 300.5 198.93C300.5 207.23 300.5 215.52 300.5 223.82C301.6 223.82 302.71 223.82 303.81 223.82C304.08 221.02 304.35 218.23 304.62 215.44C305.57 218.26 306.51 221.08 307.46 223.89C308.18 223.89 308.91 223.89 309.64 223.89ZM316.83 198.85C315.6 198.85 314.37 198.85 313.13 198.85C313.13 207.17 313.13 215.5 313.13 223.82C314.37 223.82 315.6 223.82 316.83 223.82C316.83 215.5 316.83 207.17 316.83 198.85ZM339.66 198.74C338.04 198.74 336.43 198.74 334.82 198.74C333.04 202.38 331.33 219.98 332.37 223.86C333.19 223.86 334 223.86 334.82 223.86C335.23 222.37 335.64 220.87 336.04 219.38C336.86 219.38 337.68 219.38 338.49 219.38C338.77 220.86 339.04 222.33 339.31 223.81C340.13 223.81 340.94 223.81 341.76 223.81C342.95 219.14 341.17 203.56 339.66 198.74ZM305.55 202.2C306.57 203.95 306.63 208.65 305.44 210.31C303.53 209.58 303.18 202.32 305.55 202.2ZM268.31 215.97C266.02 215.48 266.62 208.08 268.25 206.69C269.02 208.84 269.87 214.4 268.31 215.97ZM337.27 207.15C338.44 209.13 339.34 215.66 336.45 215.9C335.07 213.69 336.36 209.45 337.27 207.15Z" fill="#27db6e" fill-rule="evenodd" stroke="#27db6e" stroke-width="0.25" stroke-linejoin="round"/>
</svg>